<?xml version="1.0" encoding="UTF-8"?>
<svg width="216px" height="96px" viewBox="0 0 216 96" version="1.1" xmlns="http://www.w3.org/2000/svg" xmlns:xlink="http://www.w3.org/1999/xlink">
    <title>LOGO</title>
    <g id="Page-1" stroke="none" stroke-width="1" fill="none" fill-rule="evenodd">
        <g id="LOGO">
            <rect id="Zone-logo-max-height-width-adapt" x="0" y="0" width="216" height="96"></rect>
            <g id="Hachette/Brand/Logos/Marabout" fill="#000000">
                <path d="M9.29108034,51.5043055 C10.4688738,50.4047641 11.6205833,49.2791386 12.798778,48.1535132 L14.0026555,47.1326251 L14.0026555,56.7130821 L18.6098947,56.7130821 L18.6098947,37.6047373 L18.4790733,37.6047373 L9.29108034,45.9548316 L0.103087342,37.6047373 L-0.00165,37.6047373 L-0.00165,56.7130821 L4.55301983,56.7130821 L4.55301983,47.1326251 L5.78338263,48.1535132 C6.96157739,49.2791386 8.11328686,50.4047641 9.29108034,51.5043055 L9.29108034,51.5043055 Z M26.4884703,56.7130821 L31.4881735,56.7130821 L32.7967883,53.8338085 L39.1315916,53.8338085 L40.4662905,56.7130821 L45.4659937,56.7130821 L36.0950113,37.6047373 L35.8594526,37.6047373 L26.4884703,56.7130821 Z M34.1840565,50.6138375 C34.7077432,49.40996 35.7286313,46.7397597 35.990274,46.111737 C36.356654,47.2638477 37.1158994,49.121832 37.7704075,50.6138375 L34.1840565,50.6138375 Z M53.3710546,37.86638 L53.3710546,56.7130821 L58.0565458,56.7130821 L58.0565458,50.5095014 L60.1508913,50.5095014 L63.1870703,56.7130821 L68.1867735,56.7130821 L64.3913491,49.7237707 C66.4592094,48.80762 67.8464775,47.002205 67.8464775,44.2798367 C67.8464775,40.0389776 64.7316452,37.86638 60.2291433,37.86638 L53.3710546,37.86638 Z M60.438618,41.8977645 C61.8784555,41.8977645 63.004081,42.6305246 63.004081,44.2798367 C63.004081,46.0074009 61.9045395,46.687993 60.464702,46.687993 L58.0565458,46.687993 L58.0565458,41.8977645 L60.438618,41.8977645 Z M74.9136397,56.7130821 L79.9133429,56.7130821 L81.222359,53.8338085 L87.556761,53.8338085 L88.8918612,56.7130821 L93.8915644,56.7130821 L84.520582,37.6047373 L84.2850233,37.6047373 L74.9136397,56.7130821 Z M82.6096272,50.6138375 C83.1329126,49.40996 84.1538007,46.7397597 84.4158447,46.111737 C84.7822247,47.2638477 85.5414701,49.121832 86.1955769,50.6138375 L82.6096272,50.6138375 Z M113.052077,46.8188143 C114.335009,46.2951276 115.460635,45.0912502 115.460635,43.2324633 C115.460635,39.5413749 112.188897,37.86638 108.052775,37.86638 L101.796625,37.86638 L101.796625,56.7130821 L108.523893,56.7130821 C113.025993,56.7130821 116.167712,54.9333499 116.167712,51.1114402 C116.167712,48.9384413 114.64882,47.2899317 113.052077,46.8188143 L113.052077,46.8188143 Z M106.351295,45.5623675 L106.351295,41.6882898 L108.340502,41.6882898 C109.649518,41.6882898 110.643921,42.2902285 110.643921,43.6774967 C110.643921,44.4889101 110.277541,45.0651661 109.72777,45.3007248 C109.309222,45.5097982 108.812021,45.5623675 108.288334,45.5623675 L106.351295,45.5623675 Z M106.351295,48.6771999 L108.890273,48.6771999 C110.120636,48.6771999 111.219776,49.3056239 111.219776,50.7972282 C111.219776,52.2635509 110.068066,52.8915737 108.785535,52.8915737 L106.351295,52.8915737 L106.351295,48.6771999 Z M123.967233,47.2899317 C123.967233,52.7607523 128.129038,57.0798635 133.940154,57.0798635 C139.778157,57.0798635 143.913477,52.7607523 143.913477,47.2899317 C143.913477,41.8712792 139.751271,37.5 133.940154,37.5 C128.129038,37.5 123.967233,41.8977645 123.967233,47.2899317 L123.967233,47.2899317 Z M128.783546,47.2899317 C128.783546,44.3845741 130.877891,41.8712792 133.940154,41.8712792 C137.002819,41.8712792 139.070679,44.3845741 139.070679,47.2899317 C139.070679,50.2217747 137.002819,52.7085843 133.940154,52.7085843 C130.877891,52.7085843 128.783546,50.2217747 128.783546,47.2899317 L128.783546,47.2899317 Z M168.963358,37.86638 L164.147046,37.86638 L164.147046,49.2008866 C164.147046,51.4256522 162.995336,52.7085843 160.770169,52.7085843 C158.545404,52.7085843 157.36761,51.4256522 157.36761,49.2008866 L157.36761,37.86638 L152.57698,37.86638 L152.57698,49.7237707 C152.57698,54.1480205 155.613561,57.0798635 160.770169,57.0798635 C165.953263,57.0798635 168.963358,54.1480205 168.963358,49.7237707 L168.963358,37.86638 Z M191.99835,41.8977645 L191.99835,37.86638 L177.130463,37.86638 L177.130463,41.8977645 L182.155849,41.8977645 L182.155849,56.7130821 L186.972563,56.7130821 L186.972563,41.8977645 L191.99835,41.8977645 Z" id="MARABOUT"></path>
            </g>
        </g>
    </g>
</svg>